<svg width="172" height="50" viewBox="0 0 172 50" xmlns="http://www.w3.org/2000/svg"><title>ginger_logo_RGB</title><g fill="none" fill-rule="evenodd"><path d="M21.004 14.266c3.238-4.303 8.386-7.09 14.174-7.09s10.938 2.788 14.175 7.092H21.004v-.002zm14.174 21.279l14.175-.01v.003c-3.237 4.303-8.387 7.092-14.175 7.092-9.774 0-17.727-7.952-17.727-17.728 0-1.213.123-2.398.357-3.544h41.931C58.02 9.333 47.68.09 35.178.09c-9.897 0-18.442 5.795-22.424 14.178H.332c1.463 4.13 5.409 7.098 10.035 7.098l.25-.01a24.88 24.88 0 0 0-.251 3.545c0 1.204.085 2.387.252 3.544H.332c1.463 4.132 5.409 7.099 10.035 7.099l2.387-.01c3.982 8.384 12.527 14.18 22.424 14.18 9.898 0 18.441-5.796 22.424-14.18a24.658 24.658 0 0 0 2.137-7.086v-.003H25.142c1.464 4.132 5.41 7.099 10.036 7.099z" fill="#DB452B"/><path d="M87.283 12.112l-2.685 2.655c-1.698-1.797-3.678-2.695-5.94-2.695-1.971 0-3.622.653-4.953 1.96-1.331 1.307-1.996 2.896-1.996 4.765 0 1.934.69 3.572 2.07 4.915 1.382 1.344 3.085 2.015 5.112 2.015 1.317 0 2.428-.277 3.332-.83.904-.554 1.633-1.42 2.188-2.6h-5.8v-3.581h10.074l.027.844c0 1.752-.453 3.412-1.361 4.982-.907 1.571-2.083 2.77-3.526 3.595-1.443.825-3.136 1.238-5.078 1.238-2.079 0-3.932-.45-5.562-1.354-1.629-.903-2.918-2.19-3.866-3.86a10.761 10.761 0 0 1-1.423-5.405c0-2.65.876-4.955 2.628-6.916 2.079-2.332 4.783-3.498 8.114-3.498 1.742 0 3.371.322 4.888.966 1.28.545 2.532 1.48 3.757 2.804m4.657 16.76h3.784V8.845h-3.785zm8.086-20.027h3.657l8.568 13.179V8.845h3.813v20.027h-3.667l-8.559-13.138v13.138h-3.812V8.845m39.101 3.267l-2.685 2.655c-1.699-1.797-3.678-2.695-5.94-2.695-1.972 0-3.622.653-4.954 1.96-1.33 1.307-1.996 2.896-1.996 4.765 0 1.934.69 3.572 2.071 4.915 1.381 1.344 3.084 2.015 5.112 2.015 1.316 0 2.427-.277 3.332-.83.903-.554 1.633-1.42 2.187-2.6h-5.8v-3.581h10.075l.027.844c0 1.752-.453 3.412-1.361 4.982-.908 1.571-2.084 2.77-3.527 3.595-1.443.825-3.135 1.238-5.078 1.238-2.078 0-3.932-.45-5.561-1.354-1.63-.903-2.919-2.19-3.867-3.86a10.761 10.761 0 0 1-1.422-5.405c0-2.65.875-4.955 2.628-6.916 2.078-2.332 4.782-3.498 8.114-3.498 1.742 0 3.37.322 4.887.966 1.28.545 2.533 1.48 3.758 2.804m4.942-3.267H155v3.73h-7.147v3.622H155v3.662h-7.147v5.269H155v3.744h-10.93V8.845m18.555 7.828h1.195c1.212 0 2.046-.16 2.504-.478.456-.318.685-.847.685-1.585a1.94 1.94 0 0 0-.34-1.14 1.88 1.88 0 0 0-.909-.696c-.38-.142-1.076-.212-2.09-.212h-1.045v4.111zm-3.812-7.828h4.039c2.212 0 3.787.198 4.725.592.939.395 1.693 1.05 2.265 1.968.57.917.857 2.001.857 3.253 0 1.317-.316 2.417-.946 3.301-.631.886-1.582 1.555-2.852 2.009l4.744 8.904h-4.168l-4.503-8.482h-.349v8.482h-3.812V8.845zM70.492 35.659v3.397l1.696.02c.684 0 1.186-.063 1.504-.187.318-.124.567-.326.749-.604a1.67 1.67 0 0 0 .272-.935c0-.335-.09-.641-.272-.92a1.502 1.502 0 0 0-.718-.594c-.298-.118-.785-.177-1.461-.177h-1.77zm-1-.98h1.994c1.144 0 1.915.05 2.315.15a2.56 2.56 0 0 1 1.402.867c.363.439.544.989.544 1.651 0 .668-.176 1.218-.53 1.651-.354.434-.842.725-1.464.875-.454.108-1.302.163-2.546.163h-.715v4.657h-1V34.679zm16.066 2.127l-1.715 3.624h3.423l-1.708-3.624zm.127-2.127l4.67 10.014h-1.082L87.7 41.398h-4.314l-1.56 3.295h-1.117l4.732-10.014h.245zm8.61 0h1.15l2.563 4.13 2.522-4.13h1.157l-3.172 5.228v4.786h-.987v-4.786l-3.233-5.228m13.463 10.014l1.434-10.014h.162l4.07 8.216 4.032-8.216h.16l1.441 10.014h-.98l-.99-7.162-3.541 7.162h-.255l-3.583-7.217-.984 7.217h-.966m18.154-10.014h5.738v.98h-4.738v3.137h4.697v.981h-4.697v3.935h4.697v.98h-5.697V34.68m12.353 10.013V34.679h.217l6.665 7.675v-7.675h.987v10.014h-.225l-6.61-7.584v7.584h-1.034m14.191-9.034v-.98h5.487v.98h-2.232v9.034h-1.022v-9.034h-2.233m10.775 7.168l.851-.51c.599 1.103 1.291 1.654 2.076 1.654.336 0 .651-.08.946-.235.295-.157.52-.367.674-.63a1.62 1.62 0 0 0 .231-.837c0-.336-.113-.665-.34-.987-.313-.445-.885-.98-1.715-1.606-.835-.632-1.355-1.087-1.559-1.37-.354-.471-.531-.982-.531-1.53 0-.436.105-.834.313-1.192a2.23 2.23 0 0 1 .882-.847 2.54 2.54 0 0 1 1.235-.31c.472 0 .913.117 1.324.35.411.234.846.664 1.304 1.29l-.817.62c-.377-.5-.698-.83-.963-.987a1.657 1.657 0 0 0-.868-.238c-.404 0-.734.122-.99.367a1.203 1.203 0 0 0-.385.906c0 .218.045.428.135.633.092.204.258.426.497.666.132.128.563.46 1.294 1 .867.642 1.462 1.21 1.783 1.71.323.499.483 1.001.483 1.504 0 .727-.274 1.358-.826 1.893-.551.535-1.222.803-2.012.803-.607 0-1.16-.163-1.654-.487-.495-.324-.95-.868-1.368-1.63" fill="#1B313E"/></g></svg>